# xmcd
#
# Track frame offsets: 
#        150
#        15527
#        30118
#        42672
#        53477
#        66711
#        81658
#        93011
#        105155
#        118667
#        131339
#        143406
#        155222
#        167764
#        180460
#        194027
#        208269
#        219538
#        232271
#        244944
#        258209
#        270534
#        281888
#        294050
#
# Disc length: 4079 seconds
#
# Revision: 0
# Processed by: cddbd v1.5.2PL0 Copyright (c) Steve Scherf et al.
# Submitted via: ExactAudioCopyFreeDBPlugin 1.0
#
DISCID=600fed18
DTITLE=Big Joe Turner - Ten Years Of Hits - Disc-1
DYEAR=2013
DGENRE=Blues
TTITLE0=Chains Of Love
TTITLE1=After My Laughter Came Tears
TTITLE2=The Chill Is On
TTITLE3=Bump Miss Susie
TTITLE4=Sweet Sixteen
TTITLE5=I'll Never Stop Loving You
TTITLE6=Don't You Cry
TTITLE7=Poor Lover's Blues
TTITLE8=Still In Love
TTITLE9=Baby I Still Want You
TTITLE10=Honey Hush
TTITLE11=Crawdad Hole
TTITLE12=Oke-She-Moke-She-Pop
TTITLE13=T.V. Mamma
TTITLE14=Shake Rattle And Roll
TTITLE15=You Know I Love You
TTITLE16=Well Alright
TTITLE17=Married Woman
TTITLE18=Flip Flop And Fly
TTITLE19=Ti-Ri-Lee
TTITLE20=Hide And Seek
TTITLE21=Midnight Cannonball
TTITLE22=Morning Noon And Night
TTITLE23=The Chicken And The Hawk
EXTD=
EXTT0=
EXTT1=
EXTT2=
EXTT3=
EXTT4=
EXTT5=
EXTT6=
EXTT7=
EXTT8=
EXTT9=
EXTT10=
EXTT11=
EXTT12=
EXTT13=
EXTT14=
EXTT15=
EXTT16=
EXTT17=
EXTT18=
EXTT19=
EXTT20=
EXTT21=
EXTT22=
EXTT23=
PLAYORDER=
